# xmcd
#
# Track frame offsets: 
#        150
#        25028
#        42878
#        65183
#        84113
#        108631
#        125581
#        152206
#        165316
#        186571
#
# Disc length: 2827 seconds
#
# Revision: 0
# Processed by: cddbd v1.5.2PL0 Copyright (c) Steve Scherf et al.
# Submitted via: ExactAudioCopy v1.0b1
#
DISCID=810b090a
DTITLE=Travis Haddix - Love Coupons
DYEAR=2014
DGENRE=Modern Electric Blues
TTITLE0=Love Coupons
TTITLE1=Too Much Of Everything (But You)
TTITLE2=Good Ole Monday
TTITLE3=Art To Gettin' Even
TTITLE4=Dinner With The Devil
TTITLE5=Boogie Woogie Woman
TTITLE6=Boogie With The Boogie Man
TTITLE7=Take Me If You Want To
TTITLE8=One Half Right
TTITLE9=Sweet And Sour Loving
EXTD=
EXTT0=
EXTT1=
EXTT2=
EXTT3=
EXTT4=
EXTT5=
EXTT6=
EXTT7=
EXTT8=
EXTT9=
PLAYORDER=
